<svg id="eZ0nCpGKirU1" xmlns="http://www.w3.org/2000/svg" xmlns:xlink="http://www.w3.org/1999/xlink" viewBox="0 0 860 861" shape-rendering="geometricPrecision" text-rendering="geometricPrecision"><path d="M661,236c0,142.333313,0,284.166626,0,426-219.999969,0-439.999908,0-659.999903,0-.000032-220.333252-.000032-440.666534-.000065-660.999844c219.999861-.000052,439.999754-.000052,659.999846-.000104C661,79.166664,661,157.333328,661,236M400.500244,19.487957c-91.987182.147814-183.974335.30938-275.961548.426373-11.753044.014947-23.323288,1.22911-34.404014,5.27651-40.054169,14.630384-64.218764,48.291635-64.294201,91.321291-.196909,112.315826.024778,224.632583.209221,336.948745.033146,20.184357,5.685501,38.87613,17.733959,55.172333c19.885754,26.896637,46.883819,40.139984,80.280723,40.183747c54.992394.072082,109.984917.02008,164.977395.020385c5.75003,0,11.50003,0,16.845245,0-4.266113-15.103698-8.343048-29.53778-12.429382-44.005035-.658631,0-1.631226.000061-2.603791.00003-55.992325-.0018-111.984878.066559-167.976669-.10968-5.846733-.018402-11.688904-1.484802-18.082069-2.353973.862701-1.237793,1.082161-1.687409,1.41909-2.016968C162.559601,445.234283,218.907791,390.11972,275.278015,335.02771c4.348175-4.249603,9.63086-6.16803,15.752899-6.515381c8.203583-.465423,14.88675,2.092774,20.630097,7.99942c6.922363,7.119202,14.192779,13.899994,18.960235,18.538574c10.570191-10.622436,20.746003-20.84851,31.477784-31.6333-8.105713-7.41565-18.26532-17.49112-29.262085-26.550354-10.900177-8.979706-24.219727-12.230622-38.171265-12.6792-20.652832-.664093-37.946564,7.030396-52.575836,21.353486-55.01149,53.860199-110.065277,107.677154-165.035958,161.578949-1.112945,1.091308-1.408928,3.015838-2.086044,4.551635-.865158-.562347-1.730316-1.124725-2.595482-1.687103-.733856-6.40625-2.095939-12.81134-2.108124-19.218964-.211227-111.149719-.287796-222.299728-.318161-333.449707-.00856-31.338607,21.785424-53.194732,53.107789-53.231323c111.983566-.130836,223.967254-.211536,335.950897-.22126c31.371612-.002724,53.035217,21.766663,53.151184,53.107681.058594,15.830941.010986,31.6623.010559,47.493462-.001038,38.661362.045959,77.322906-.082825,115.983826-.012207,3.659271.750611,5.405822,4.72345,5.719116c3.784363.298401,7.546753,1.314728,11.233276,2.326904c9.552735,2.622772,19.05835,5.417114,28.471619,8.111145c0-5.664001,0-11.442688,0-17.221344c0-52.992752.053345-105.985611-.064575-158.978096-.015503-6.967605-.514649-13.986862-1.457215-20.891067-5.836364-42.748597-44.765075-78.120985-88.013672-79.527363-21.807769-.709156-43.649749-.366455-66.476318-.499489M361.133911,369.636932c-3.68219,4.503662-7.684418,8.785065-10.992218,13.548676-15.91568,22.920135-25.452453,48.390686-27.662781,76.139526-3.806183,47.782715,9.9758,90.049561,43.087098,125.05072c41.617523,43.99292,93.124542,59.398926,151.991851,47.945923c40.667298-7.911987,73.799866-29.607055,97.572876-63.744873c38.325989-55.035888,42.060364-113.65744,10.240113-172.082824-28.697571-52.691803-75.41034-80.964936-135.737793-83.202362-51.082398-1.894532-94.365418,16.532959-128.499146,56.345214m72.356537-133.647796c3.342987-4.129776,7.203247-7.943558,9.94873-12.438294c26.962647-44.141403-3.368377-99.541504-55.167236-100.978035-42.81784-1.187477-76.181488,40.481758-65.751037,81.505989c12.567871,49.430985,72.945709,67.834534,110.969543,31.91034Z" transform="translate(167.942316 167.9423)" fill="transparent"/><path d="M405.630737,176.541336c7.89267,15.374313.814575,30.981125-14.945526,33.73378-9.792602,1.710373-19.658478-3.542465-23.731323-12.635132-4.210358-9.399689-1.247253-20.578247,7.110962-26.826568c7.784607-5.819504,19.355011-5.538895,26.86914.762344c1.642212,1.377151,2.99408,3.100555,4.696747,4.965576Z" transform="translate(168.942348 168.942352)" fill="#c2befa"/><rect width="364.37086" height="493.209175" rx="99" ry="99" transform="matrix(1.456641 0 0 1.085609 63.77322 89.903816)" fill="#2d2c3b" stroke-width="0"/><path d="M433.220764,236.222321c-37.75415,35.691009-98.131988,17.28746-110.699859-32.143525-10.430451-41.024231,22.933197-82.693466,65.751037-81.505989c51.798859,1.436531,82.129883,56.836632,55.167236,100.978035-2.745483,4.494736-6.605743,8.308518-10.218414,12.671479m-27.807098-59.982056c-1.485596-1.56395-2.837464-3.287354-4.479676-4.664505-7.514129-6.301239-19.084533-6.581848-26.86914-.762344-8.358215,6.248321-11.32132,17.426879-7.110962,26.826568c4.072845,9.092667,13.938721,14.345505,23.731323,12.635132c15.760101-2.752655,22.838196-18.359467,14.728455-34.034851Z" transform="translate(168.942348 168.942351)" fill="#c2befa"/><path d="M361.369812,369.371094c33.897827-39.546417,77.180847-57.973908,128.263245-56.079376c60.327453,2.237426,107.040222,30.510559,135.737793,83.202362c31.820251,58.425384,28.085876,117.046936-10.240113,172.082824-23.77301,34.137818-56.905578,55.832886-97.572876,63.744873-58.867309,11.453003-110.374328-3.953003-151.991851-47.945923-33.111298-35.001159-46.893281-77.268005-43.087098-125.05072c2.210328-27.74884,11.747101-53.219391,27.662781-76.139526c3.3078-4.763611,7.310028-9.045014,11.228119-13.814514M509.969635,554.469666c12.747833-12.694825,25.71048-25.185975,38.086639-38.233399c2.947388-3.1073,5.07544-7.946503,5.552552-12.215729.693176-6.202484-3.395447-10.767486-9.080933-12.998016-5.915344-2.320648-11.496399-.998688-16.080688,3.559113-8.85962,8.808471-17.664643,17.671966-26.515564,26.489288-.965485.961914-2.082978,1.77124-3.50116,2.963318c0-22.35727-.051727-43.976349.013641-65.595124.074524-24.638946.450592-49.278869.297577-73.915893-.068695-11.057678-11.391205-18.172485-20.759949-13.416962-6.464965,3.281555-8.777343,8.99762-8.785949,16.11554-.052399,43.308899-.236572,86.617615-.375763,129.926391-.005585,1.734558-.000733,3.469117-.000733,6.15625-1.791381-1.535156-2.704711-2.222229-3.507507-3.020385-8.977844-8.92569-17.830933-17.980133-26.937744-26.771851-7.438049-7.180786-18.402313-5.601105-23.431458,3.091064-3.411285,5.895936-2.103668,12.743439,3.600708,18.589722c18.12082,18.571472,36.2482,37.136475,54.384949,55.692383c6.030365,6.169739,15.253693,6.095337,21.297363-.143616c5.087311-5.251587,10.162354-10.515014,15.744019-16.272094Z" transform="translate(168.942348 168.942351)" fill="#c2befa"/><path d="M401.000275,19.488014c22.326538.132977,44.168518-.209724,65.976287.499432c43.248597,1.406378,82.177308,36.778766,88.013672,79.527363.942566,6.904205,1.441712,13.923462,1.457215,20.891067.11792,52.992485.064575,105.985344.064575,158.978096c0,5.778656,0,11.557343,0,17.221344-9.413269-2.694031-18.918884-5.488373-28.471619-8.111145-3.686523-1.012176-7.448913-2.028503-11.233276-2.326904-3.972839-.313294-4.735657-2.059845-4.72345-5.719116.128784-38.66092.081787-77.322464.082825-115.983826.000427-15.831162.048035-31.662521-.010559-47.493462-.115967-31.341018-21.779572-53.110405-53.151184-53.107681-111.983643.009724-223.967331.090424-335.950897.22126-31.322365.036591-53.116349,21.892716-53.107789,53.231323.030365,111.149979.106934,222.299988.318161,333.449707.012185,6.407624,1.374268,12.812714,2.108124,19.218964.865166.562378,1.730324,1.124756,2.595482,1.687103.677116-1.535797.973099-3.460327,2.086044-4.551635c54.970681-53.901795,110.024468-107.71875,165.035958-161.578949c14.629272-14.32309,31.923004-22.017579,52.575836-21.353486c13.951538.448578,27.271088,3.699494,38.171265,12.6792c10.996765,9.059234,21.156372,19.134704,29.262085,26.550354-10.731781,10.78479-20.907593,21.010864-31.477784,31.6333-4.767456-4.63858-12.037872-11.419372-18.960235-18.538574-5.743347-5.906646-12.426514-8.464843-20.630097-7.99942-6.122039.347351-11.404724,2.265778-15.752899,6.515381-56.370224,55.09201-112.718414,110.206573-169.063812,165.324005-.336929.329559-.556389.779175-1.41909,2.016968c6.393165.869171,12.235336,2.335571,18.082069,2.353973c55.991791.176239,111.984344.10788,167.976669.10968.972565.000031,1.94516-.00003,2.603791-.00003c4.086334,14.467255,8.163269,28.901337,12.429382,44.005035-5.345215,0-11.095215,0-16.845245,0-54.992478-.000305-109.985001.051697-164.977395-.020385-33.396904-.043763-60.394969-13.28711-80.280723-40.183747-12.048458-16.296203-17.700813-34.987976-17.733959-55.172333-.184443-112.316162-.40613-224.632919-.209221-336.948745.075437-43.029656,24.240032-76.690907,64.294201-91.321291c11.080726-4.0474,22.65097-5.261563,34.404014-5.27651c91.987213-.116993,183.974366-.278559,276.461579-.426316Z" transform="translate(168.942348 168.942352)" fill="#c2befa"/><path d="M509.719025,554.719116c-5.331055,5.50763-10.406098,10.771057-15.493409,16.022644-6.04367,6.238953-15.266998,6.313355-21.297363.143616-18.136749-18.555908-36.264129-37.120911-54.384949-55.692383-5.704376-5.846283-7.011993-12.693786-3.600708-18.589722c5.029145-8.692169,15.993409-10.27185,23.431458-3.091064c9.106811,8.791718,17.9599,17.846161,26.937744,26.771851.802796.798156,1.716126,1.485229,3.507507,3.020385c0-2.687133-.004852-4.421692.000733-6.15625.139191-43.308776.323364-86.617492.375763-129.926391.008606-7.11792,2.320984-12.833985,8.785949-16.11554c9.368744-4.755523,20.691254,2.359284,20.759949,13.416962.153015,24.637024-.223053,49.276947-.297577,73.915893-.065368,21.618775-.013641,43.237854-.013641,65.595124c1.418182-1.192078,2.535675-2.001404,3.50116-2.963318c8.850921-8.817322,17.655944-17.680817,26.515564-26.489288c4.584289-4.557801,10.165344-5.879761,16.080688-3.559113c5.685486,2.23053,9.774109,6.795532,9.080933,12.998016-.477112,4.269226-2.605164,9.108429-5.552552,12.215729-12.376159,13.047424-25.338806,25.538574-38.337249,38.482849Z" transform="translate(168.942348 168.942352)" fill="transparent"/></svg>
