<svg version="1.1" id="Layer_1" xmlns="http://www.w3.org/2000/svg" xmlns:xlink="http://www.w3.org/1999/xlink" x="0px" y="0px"
	 width="100%" viewBox="0 0 461 434" enable-background="new 0 0 461 434" xml:space="preserve">
<path fill="#15151c" opacity="1.000000" stroke="none" 
	d="
M254.000000,435.000000 
	C169.356827,435.000000 85.213654,435.000000 1.035240,435.000000 
	C1.035240,290.397217 1.035240,145.794418 1.035240,1.095811 
	C154.559845,1.095811 308.119751,1.095811 461.839844,1.095811 
	C461.839844,145.666519 461.839844,290.333252 461.839844,435.000000 
	C392.794403,435.000000 323.647186,435.000000 254.000000,435.000000 
M92.997803,21.679117 
	C92.997803,114.946121 92.997803,208.213135 92.997803,301.480133 
	C92.016197,301.989899 91.034592,302.499634 90.052986,303.009399 
	C88.560768,300.807098 87.353760,298.326630 85.525429,296.452148 
	C78.733070,289.488281 72.223160,282.121552 64.694267,276.035461 
	C55.056686,268.244751 43.787830,267.450684 32.910442,273.377106 
	C22.962223,278.797302 17.554298,287.599335 17.238331,299.240082 
	C16.990629,308.365784 21.112034,315.617584 27.164614,321.790283 
	C51.498154,346.606659 75.708313,371.555695 100.546829,395.860107 
	C112.201859,407.264587 127.599098,408.567352 140.416611,397.318756 
	C152.763992,386.482788 164.078186,374.468628 175.832794,362.958313 
	C189.610703,349.466736 203.056671,335.615723 217.233734,322.558075 
	C231.147583,309.742828 232.644135,288.266205 216.192871,275.861053 
	C203.333755,266.164581 187.600952,267.745544 175.990875,279.401001 
	C168.872345,286.547333 162.067459,294.006073 155.121735,301.324554 
	C154.266418,300.976654 153.411102,300.628754 152.555801,300.280884 
	C152.464020,284.805664 152.528549,269.324982 152.516708,253.847549 
	C152.504745,238.184540 152.514084,222.521515 152.514084,206.858505 
	C152.514084,191.195496 152.514069,175.532486 152.514084,159.869476 
	C152.514084,144.206451 152.514084,128.543442 152.514084,112.880424 
	C152.514084,97.217407 152.514084,81.554398 152.514084,65.891380 
	C152.514084,50.323303 152.514069,34.755222 152.514069,18.997774 
	C133.105408,18.997774 114.449745,18.973064 95.794731,19.070667 
	C94.860817,19.075554 93.932465,20.140594 92.997803,21.679117 
M259.509979,89.010109 
	C254.723999,93.534920 249.685486,97.824715 245.207565,102.636230 
	C237.268402,111.166840 233.360428,121.577209 236.975006,132.775742 
	C243.607346,153.323761 268.232239,161.728104 285.114258,146.999283 
	C290.118927,142.632935 294.728851,137.813690 299.511475,133.193527 
	C302.905243,129.915085 306.285339,126.622513 309.671509,123.336250 
	C310.141754,123.507645 310.611969,123.679039 311.082214,123.850433 
	C311.082214,217.440811 311.082214,311.031189 311.082214,404.735901 
	C331.592102,404.735901 351.162872,404.735901 371.454468,404.735901 
	C371.454468,310.486511 371.454468,216.498901 371.454468,121.127670 
	C374.447723,123.881638 376.418915,125.590828 378.272461,127.419258 
	C385.078857,134.133469 391.431580,141.381470 398.730347,147.504410 
	C408.438507,155.648605 419.766937,156.609299 430.886047,150.706451 
	C441.110504,145.278564 446.465118,136.246552 446.713562,124.437904 
	C446.901123,115.520058 442.852264,108.375946 436.924347,102.330284 
	C412.475220,77.395569 388.107513,52.371052 363.161011,27.939978 
	C355.509277,20.446356 345.885437,16.876116 334.426910,20.801004 
	C327.827637,23.061453 322.991486,26.890398 318.209930,31.630718 
	C298.949341,50.725121 279.432007,69.560547 259.509979,89.010109 
z"/>
<path fill="#c2befa" opacity="1.000000" stroke="none" 
	d="
M92.999664,21.195560 
	C93.932465,20.140594 94.860817,19.075554 95.794731,19.070667 
	C114.449745,18.973064 133.105408,18.997774 152.514069,18.997774 
	C152.514069,34.755222 152.514084,50.323303 152.514084,65.891380 
	C152.514084,81.554398 152.514084,97.217407 152.514084,112.880424 
	C152.514084,128.543442 152.514084,144.206451 152.514084,159.869476 
	C152.514069,175.532486 152.514084,191.195496 152.514084,206.858505 
	C152.514084,222.521515 152.504745,238.184540 152.516708,253.847549 
	C152.528549,269.324982 152.464020,284.805664 152.555801,300.280884 
	C153.411102,300.628754 154.266418,300.976654 155.121735,301.324554 
	C162.067459,294.006073 168.872345,286.547333 175.990875,279.401001 
	C187.600952,267.745544 203.333755,266.164581 216.192871,275.861053 
	C232.644135,288.266205 231.147583,309.742828 217.233734,322.558075 
	C203.056671,335.615723 189.610703,349.466736 175.832794,362.958313 
	C164.078186,374.468628 152.763992,386.482788 140.416611,397.318756 
	C127.599098,408.567352 112.201859,407.264587 100.546829,395.860107 
	C75.708313,371.555695 51.498154,346.606659 27.164614,321.790283 
	C21.112034,315.617584 16.990629,308.365784 17.238331,299.240082 
	C17.554298,287.599335 22.962223,278.797302 32.910442,273.377106 
	C43.787830,267.450684 55.056686,268.244751 64.694267,276.035461 
	C72.223160,282.121552 78.733070,289.488281 85.525429,296.452148 
	C87.353760,298.326630 88.560768,300.807098 90.052986,303.009399 
	C91.034592,302.499634 92.016197,301.989899 92.997803,301.480133 
	C92.997803,208.213135 92.997803,114.946121 92.999664,21.195560 
z"/>
<path fill="#c2befa" opacity="1.000000" stroke="none" 
	d="
M259.759766,88.750870 
	C279.432007,69.560547 298.949341,50.725121 318.209930,31.630718 
	C322.991486,26.890398 327.827637,23.061453 334.426910,20.801004 
	C345.885437,16.876116 355.509277,20.446356 363.161011,27.939978 
	C388.107513,52.371052 412.475220,77.395569 436.924347,102.330284 
	C442.852264,108.375946 446.901123,115.520058 446.713562,124.437904 
	C446.465118,136.246552 441.110504,145.278564 430.886047,150.706451 
	C419.766937,156.609299 408.438507,155.648605 398.730347,147.504410 
	C391.431580,141.381470 385.078857,134.133469 378.272461,127.419258 
	C376.418915,125.590828 374.447723,123.881638 371.454468,121.127670 
	C371.454468,216.498901 371.454468,310.486511 371.454468,404.735901 
	C351.162872,404.735901 331.592102,404.735901 311.082214,404.735901 
	C311.082214,311.031189 311.082214,217.440811 311.082214,123.850433 
	C310.611969,123.679039 310.141754,123.507645 309.671509,123.336250 
	C306.285339,126.622513 302.905243,129.915085 299.511475,133.193527 
	C294.728851,137.813690 290.118927,142.632935 285.114258,146.999283 
	C268.232239,161.728104 243.607346,153.323761 236.975006,132.775742 
	C233.360428,121.577209 237.268402,111.166840 245.207565,102.636230 
	C249.685486,97.824715 254.723999,93.534920 259.759766,88.750870 
z"/>
</svg>