<svg id="eU2n4lahEfX1" xmlns="http://www.w3.org/2000/svg" xmlns:xlink="http://www.w3.org/1999/xlink" viewBox="0 0 24 24" shape-rendering="geometricPrecision" text-rendering="geometricPrecision"><rect width="8.337269" height="13.153457" rx="1.9" ry="1.9" transform="matrix(1.69903 0 0 1.079991 7.893366 7.467265)" fill="#2d2c3b" stroke="rgba(0,0,0,0)"/><g transform="matrix(.790418 0 0 0.788489 2.663468 2.747705)"><g transform="translate(-1.913572-1.533404)"><path d="M18.75,4C20.544925,4,22,5.455075,22,7.25v11.5C22,20.544925,20.544925,22,18.75,22h-11.5C5.455075,22,4,20.544925,4,18.75v-6.248133c.474254.197736.976874.340916,1.500093.421699L5.5,18.75c0,.208401.036428.408294.103264.593659l5.82252-5.700667c.833082-.8157,2.141677-.85449,3.019986-.116409l.128405.116539l5.822197,5.701544C20.46344,19.159018,20.5,18.958779,20.5,18.75v-11.5c0-.966498-.783502-1.75-1.75-1.75l-5.826434.000093C12.842783,4.976874,12.699603,4.474254,12.501867,4L18.75,4ZM12.558795,14.643991l-.083592.070784-5.806752,5.686276c.18195.064087.377678.098949.581549.098949h11.5c.203493,0,.398874-.034733.580538-.098593l-5.805871-5.686589c-.26505-.259562-.674542-.283175-.965872-.070827ZM16.252115,7.5c1.243809,0,2.252115,1.008306,2.252115,2.252115s-1.008306,2.252115-2.252115,2.252115-2.252115-1.008306-2.252115-2.252115s1.008306-2.252115,2.252115-2.252115ZM6.5,1C9.537566,1,12,3.462434,12,6.5s-2.462434,5.5-5.5,5.5-5.5-2.462434-5.5-5.5s2.462434-5.5,5.5-5.5Zm9.752115,8C15.836733,9,15.5,9.336733,15.5,9.752115s.336733.752115.752115.752115.752115-.336733.752115-.752115-.336733-.752115-.752115-.752115ZM6.5,2.999235l-.089876.008056c-.204093.037044-.365024.197975-.402068.402068L6,3.499235l-.00035,2.5L3.49765,6l-.089876.008056c-.204093.037044-.365025.197975-.402069.402068L2.99765,6.5l.008055.089876c.037044.204093.197976.365024.402069.402068L3.49765,7l2.503-.000765.000458,2.50425.008055.089875c.037044.204093.197976.365025.402069.402069l.089876.008056.089875-.008056c.204093-.037044.365025-.197976.402069-.402069l.008056-.089875-.000458-2.50425L9.504566,7l.089875-.008056c.204093-.037044.365025-.197975.402069-.402068L10.004566,6.5L9.99651,6.410124c-.037044-.204093-.197976-.365024-.402069-.402068L9.504566,6L6.99965,5.999235L7,3.499235l-.008056-.089876c-.037044-.204093-.197975-.365024-.402068-.402068L6.5,2.999235Z" fill="#c2befa"/></g></g><path d="" fill="none" stroke="#3f5787" stroke-width="0.5"/></svg>
